# xmcd
#
# Track frame offsets:
#	150
#	13199
#	40333
#	65645
#	90761
#	116040
#	142832
#	166647
#	203209
#
# Disc length: 3056 seconds
#
# Revision: 1
# Processed by: cddbd v1.5.2PL0 Copyright (c) Steve Scherf et al.
# Submitted via: audiograbber 1.83.01
#
DISCID=6e0bee09
DTITLE=Jessica Mauboy - Hard2Beat Promo - Burn
DYEAR=2009
DGENRE=Dance
TTITLE0=Burn (Radio Edit)
TTITLE1=Burn (Jason Nevins Remix)
TTITLE2=Burn (Ali Payami Remix)
TTITLE3=Burn (Disco Villains Remix)
TTITLE4=Burn (Disco Villains Alternative Remix)
TTITLE5=Burn (Mikix The Cat Remix)
TTITLE6=Burn (NB Funky Remix Edit)
TTITLE7=Burn (NB Funky Remix)
TTITLE8=Burn (Nitra M Remix)
EXTD=
EXTT0=
EXTT1=
EXTT2=
EXTT3=
EXTT4=
EXTT5=
EXTT6=
EXTT7=
EXTT8=
PLAYORDER=
